# xmcd CD database file
#
# Track frame offsets:
#	150
#	18040
#	36969
#	53623
#	72305
#	88447
#	106046
#	122271
#	138834
#	153995
#	169329
#
# Disc length: 2471 seconds
#
# Revision: 1
# Processed by: cddbd v1.5.1PL0 Copyright (c) Steve Scherf et al.
# Submitted via: CDex 1.51
#
DISCID=8409a50b
DTITLE=Harem Scarem - Overload
DYEAR=2005
DGENRE=Hard Rock
TTITLE0=Dagger
TTITLE1=Afterglow
TTITLE2=Rise and Fall
TTITLE3=Don't Come Easy
TTITLE4=Can't Live With You
TTITLE5=Forgive and Forget
TTITLE6=All You're Getting
TTITLE7=Leading Me On
TTITLE8=Understand You
TTITLE9=Same Mistakes
TTITLE10=You Shook Me All Night Long
EXTD=YEAR: 2005
EXTT0=
EXTT1=
EXTT2=
EXTT3=
EXTT4=
EXTT5=
EXTT6=
EXTT7=
EXTT8=
EXTT9=
EXTT10=
PLAYORDER=
